<svg xmlns="http://www.w3.org/2000/svg" width="1254" height="1254" viewBox="0 0 1254 1254" style="background-color: transparent;">

  <!-- SVG 1: rounded rectangle, 1254x1254 -->
  <g>
    <path stroke="#ebafad" stroke-width="2.00" fill="none" stroke-linecap="butt" vector-effect="non-scaling-stroke" d="M 1154.28 92.92 Q 1114.31 53.25 1062.17 33.97 C 1023.12 19.52 981.92 16.31 940.70 14.36 Q 925.40 13.63 888.28 13.66 Q 842.86 13.68 368.10 13.69 C 346.09 13.69 324.43 13.67 301.00 14.90 C 268.42 16.61 236.15 19.92 205.88 28.66 C 142.73 46.91 87.67 89.57 55.60 146.84 Q 36.34 181.25 28.31 218.05 Q 25.14 232.63 23.13 247.93 Q 18.16 285.83 17.56 323.28 Q 17.06 353.91 17.06 356.53 Q 17.12 516.69 17.11 886.27 C 17.10 927.86 17.99 968.85 24.56 1009.23 Q 29.02 1036.66 36.98 1058.81 C 63.37 1132.29 120.49 1189.97 194.93 1214.54 Q 227.32 1225.23 262.01 1228.77 Q 288.20 1231.44 311.16 1232.42 Q 324.86 1233.01 360.41 1233.01 Q 819.67 1233.13 912.31 1232.95 Q 957.93 1232.86 996.02 1228.18 Q 1020.72 1225.14 1045.51 1217.99 C 1094.22 1203.94 1136.58 1176.33 1169.02 1137.38 Q 1198.18 1102.37 1213.98 1057.80 C 1222.03 1035.08 1226.86 1009.37 1229.37 984.97 Q 1232.20 957.44 1232.78 936.24 C 1233.53 908.07 1233.33 875.04 1233.33 848.45 Q 1233.38 634.41 1233.42 348.25 Q 1233.43 304.64 1229.13 261.28 Q 1226.91 238.85 1222.46 218.53 C 1211.99 170.68 1188.87 127.24 1154.28 92.92"/>

    <path fill="#d95f5c" d="M 1154.28 92.92 C 1188.87 127.24 1211.99 170.68 1222.46 218.53 Q 1226.91 238.85 1229.13 261.28 Q 1233.43 304.64 1233.42 348.25 Q 1233.38 634.41 1233.33 848.45 C 1233.33 875.04 1233.53 908.07 1232.78 936.24 Q 1232.20 957.44 1229.37 984.97 C 1226.86 1009.37 1222.03 1035.08 1213.98 1057.80 Q 1198.18 1102.37 1169.02 1137.38 C 1136.58 1176.33 1094.22 1203.94 1045.51 1217.99 Q 1020.72 1225.14 996.02 1228.18 Q 957.93 1232.86 912.31 1232.95 Q 819.67 1233.13 360.41 1233.01 Q 324.86 1233.01 311.16 1232.42 Q 288.20 1231.44 262.01 1228.77 Q 227.32 1225.23 194.93 1214.54 C 120.49 1189.97 63.37 1132.29 36.98 1058.81 Q 29.02 1036.66 24.56 1009.23 C 17.99 968.85 17.10 927.86 17.11 886.27 Q 17.12 516.69 17.06 356.53 Q 17.06 353.91 17.56 323.28 Q 18.16 285.83 23.13 247.93 Q 25.14 232.63 28.31 218.05 Q 36.34 181.25 55.60 146.84 C 87.67 89.57 142.73 46.91 205.88 28.66 C 236.15 19.92 268.42 16.61 301.00 14.90 C 324.43 13.67 346.09 13.69 368.10 13.69 Q 842.86 13.68 888.28 13.66 Q 925.40 13.63 940.70 14.36 C 981.92 16.31 1023.12 19.52 1062.17 33.97 Q 1114.31 53.25 1154.28 92.92 Z"/>
  </g>

  <!-- SVG 2: 843x427.5, centered in the 1254x1254 canvas -->
  <!-- Canvas center: (627, 627). SVG2 size: (843, 427.5), so half = (421.5, 213.75) -->
  <!-- translate = (627 - 421.5, 627 - 213.75) = (205.5, 413.25) -->
  <g transform="translate(205.5, 413.25)">
    <path fill="#fcf4f0" d="M 487.94 143.05 C 472.31 142.03 461.16 131.36 457.77 116.29 Q 456.20 109.29 458.11 100.66 Q 460.67 89.11 470.33 79.61 Q 491.61 58.67 512.92 44.93 Q 545.13 24.16 581.07 15.40 Q 598.91 11.05 619.21 9.39 C 655.80 6.40 692.16 14.40 725.38 30.65 Q 735.50 35.61 748.69 44.57 Q 761.26 53.12 770.07 61.16 Q 820.83 107.46 834.33 174.32 Q 837.76 191.27 838.02 216.73 C 838.11 225.18 836.87 233.13 836.09 241.75 Q 835.62 246.99 834.75 251.72 Q 828.35 286.71 810.90 317.08 C 793.70 347.03 768.29 372.51 738.78 390.75 C 719.25 402.82 694.72 412.38 670.99 416.28 C 641.88 421.06 612.36 420.75 584.50 410.51 C 569.22 404.89 554.89 398.16 541.11 388.68 Q 521.85 375.44 508.17 362.81 C 487.16 343.42 467.91 321.24 451.70 299.81 Q 445.59 291.73 432.90 274.40 Q 428.67 268.62 425.05 263.23 Q 420.83 256.92 417.42 251.89 Q 399.70 225.71 382.88 201.11 Q 366.90 177.75 350.17 157.72 Q 342.64 148.69 332.26 138.33 Q 319.22 125.33 313.06 120.05 Q 294.70 104.32 273.85 94.44 Q 235.71 76.36 193.25 80.41 Q 189.18 80.80 177.89 83.24 C 150.57 89.16 126.95 103.44 108.46 124.49 Q 76.08 161.35 73.97 211.03 C 73.69 217.45 74.16 222.11 74.75 229.01 Q 76.79 252.91 89.08 276.67 C 105.30 308.04 132.31 330.95 165.39 342.08 Q 184.51 348.52 207.02 348.81 Q 256.50 349.46 297.56 322.54 Q 308.09 315.64 313.16 311.16 C 322.44 302.97 331.45 294.30 339.71 284.22 Q 348.71 273.22 362.99 270.93 C 376.49 268.77 390.69 276.21 397.18 288.24 Q 404.11 301.07 399.77 315.51 C 397.53 322.98 394.26 327.98 388.82 334.30 Q 365.07 361.87 334.08 382.31 Q 323.14 389.52 312.61 394.60 C 300.04 400.67 287.68 406.27 274.18 410.19 Q 239.67 420.21 201.70 419.10 Q 169.90 418.17 140.56 407.84 C 95.35 391.92 57.38 359.82 32.46 318.62 C 28.54 312.15 24.36 303.41 21.71 297.54 Q 14.54 281.66 10.45 264.57 Q 3.10 233.85 4.41 204.02 Q 4.94 191.92 8.17 174.94 C 13.77 145.45 26.10 117.16 43.50 93.24 Q 61.02 69.14 85.75 50.43 Q 126.80 19.38 179.47 11.20 C 192.58 9.16 207.19 8.09 220.88 9.07 Q 253.12 11.38 279.32 20.50 C 312.82 32.15 342.50 51.57 368.48 76.03 C 397.46 103.30 421.83 135.07 444.34 167.91 Q 479.14 218.64 486.27 229.00 C 499.88 248.80 514.87 268.46 531.18 287.07 C 546.22 304.24 563.38 320.29 582.52 332.22 C 598.09 341.92 614.78 348.05 633.55 348.60 Q 668.52 349.62 699.97 332.27 Q 713.78 324.64 723.57 315.60 Q 747.45 293.55 759.21 264.23 C 770.08 237.09 770.67 205.54 763.18 177.02 Q 762.21 173.33 759.36 165.91 Q 745.72 130.45 715.87 107.15 C 657.92 61.92 578.64 75.79 527.14 122.47 Q 523.03 126.19 519.28 129.89 Q 513.51 135.56 511.22 137.10 Q 501.04 143.91 487.94 143.05 Z"/>
  </g>

</svg>
